<?xml version="1.0" encoding="UTF-8"?>
<!DOCTYPE svg PUBLIC "-//W3C//DTD SVG 1.1//EN" "http://www.w3.org/Graphics/SVG/1.1/DTD/svg11.dtd">
<svg xmlns="http://www.w3.org/2000/svg" version="1.1" width="512px" height="512px" style="shape-rendering:geometricPrecision; text-rendering:geometricPrecision; image-rendering:optimizeQuality; fill-rule:evenodd; clip-rule:evenodd" xmlns:xlink="http://www.w3.org/1999/xlink">
<g><path style="opacity:0.947" fill="#000000" d="M 243.5,41.5 C 329.668,40.4876 395.502,76.1543 441,148.5C 478.997,219.87 478.997,291.204 441,362.5C 398.456,431.26 336.456,466.927 255,469.5C 176.352,466.859 115.685,432.859 73,367.5C 31,292.833 31,218.167 73,143.5C 113.168,81.9859 170.002,47.9859 243.5,41.5 Z M 254.5,63.5 C 335.22,67.1169 393.72,104.784 430,176.5C 457.065,242.224 451.399,304.891 413,364.5C 407.728,371.391 402.228,378.057 396.5,384.5C 378.665,341.331 347.998,311.331 304.5,294.5C 338.812,267.051 348.979,232.384 335,190.5C 315.699,151.261 284.199,134.095 240.5,139C 196.27,149.567 172.603,177.567 169.5,223C 170.364,252.898 182.697,276.731 206.5,294.5C 163.002,311.331 132.335,341.331 114.5,384.5C 71.9366,336.272 56.4366,280.272 68,216.5C 86.8322,141.334 133.332,92.5009 207.5,70C 223.125,66.4238 238.792,64.2572 254.5,63.5 Z M 254.5,159.5 C 286.017,161.667 306.851,177.667 317,207.5C 323.115,240.43 311.615,264.93 282.5,281C 248.081,293.638 220.581,284.805 200,254.5C 185.797,223.853 190.963,197.02 215.5,174C 227.15,165.286 240.15,160.453 254.5,159.5 Z M 242.5,309.5 C 298.83,307.073 340.997,330.073 369,378.5C 372.367,386.27 375.533,394.104 378.5,402C 324.464,445.14 264.131,457.14 197.5,438C 173.255,430.384 151.588,418.384 132.5,402C 150.504,348.849 187.171,318.015 242.5,309.5 Z"/></g>
</svg>
